<svg width="108" height="44" viewBox="0 0 108 44" fill="none" xmlns="http://www.w3.org/2000/svg">
<path d="M16.5 16.0625C14.4698 16.0625 12.8226 17.7422 12.8226 19.8125C12.8226 21.8828 14.4698 23.5625 16.5 23.5625C18.5302 23.5625 20.1774 21.8828 20.1774 19.8125C20.1774 17.7422 18.5302 16.0625 16.5 16.0625ZM16.5 21.6875C15.4849 21.6875 14.6613 20.8477 14.6613 19.8125C14.6613 18.7773 15.4849 17.9375 16.5 17.9375C17.5151 17.9375 18.3387 18.7773 18.3387 19.8125C18.3387 20.8477 17.5151 21.6875 16.5 21.6875ZM16.5 12.3125C11.252 12.3125 7 16.6484 7 22C7 27.3516 11.252 31.6875 16.5 31.6875C21.748 31.6875 26 27.3516 26 22C26 16.6484 21.748 12.3125 16.5 12.3125ZM16.5 29.8125C14.5962 29.8125 12.8571 29.0977 11.5163 27.9219C12.0871 27.0234 13.0639 26.4141 14.1825 26.3789C14.9792 26.6289 15.7377 26.7539 16.5 26.7539C17.2623 26.7539 18.0208 26.6328 18.8175 26.3789C19.9361 26.418 20.9129 27.0234 21.4837 27.9219C20.1429 29.0977 18.4038 29.8125 16.5 29.8125V29.8125ZM22.7325 26.5273C21.7978 25.3008 20.3536 24.5 18.7065 24.5C18.3157 24.5 17.7105 24.875 16.5 24.875C15.2933 24.875 14.6843 24.5 14.2935 24.5C12.6502 24.5 11.206 25.3008 10.2675 26.5273C9.37117 25.25 8.83871 23.6875 8.83871 22C8.83871 17.6914 12.2748 14.1875 16.5 14.1875C20.7252 14.1875 24.1613 17.6914 24.1613 22C24.1613 23.6875 23.6288 25.25 22.7325 26.5273Z" fill="black"/>
<rect x="1.5" y="1.5" width="105" height="41" rx="5.5" stroke="black" stroke-width="3"/>
<path d="M32.1973 26H31.0723V17.4688H32.1973V26ZM35.1152 19.6602L35.1504 20.457C35.6348 19.8477 36.2676 19.543 37.0488 19.543C38.3887 19.543 39.0645 20.2988 39.0762 21.8105V26H37.9922V21.8047C37.9883 21.3477 37.8828 21.0098 37.6758 20.791C37.4727 20.5723 37.1543 20.4629 36.7207 20.4629C36.3691 20.4629 36.0605 20.5566 35.7949 20.7441C35.5293 20.9316 35.3223 21.1777 35.1738 21.4824V26H34.0898V19.6602H35.1152ZM41.8887 26H40.8047V19.6602H41.8887V26ZM40.7168 17.9785C40.7168 17.8027 40.7695 17.6543 40.875 17.5332C40.9844 17.4121 41.1445 17.3516 41.3555 17.3516C41.5664 17.3516 41.7266 17.4121 41.8359 17.5332C41.9453 17.6543 42 17.8027 42 17.9785C42 18.1543 41.9453 18.3008 41.8359 18.418C41.7266 18.5352 41.5664 18.5938 41.3555 18.5938C41.1445 18.5938 40.9844 18.5352 40.875 18.418C40.7695 18.3008 40.7168 18.1543 40.7168 17.9785ZM46.1719 25.2324C46.5586 25.2324 46.8965 25.1152 47.1855 24.8809C47.4746 24.6465 47.6348 24.3535 47.666 24.002H48.6914C48.6719 24.3652 48.5469 24.7109 48.3164 25.0391C48.0859 25.3672 47.7773 25.6289 47.3906 25.8242C47.0078 26.0195 46.6016 26.1172 46.1719 26.1172C45.3086 26.1172 44.6211 25.8301 44.1094 25.2559C43.6016 24.6777 43.3477 23.8887 43.3477 22.8887V22.707C43.3477 22.0898 43.4609 21.541 43.6875 21.0605C43.9141 20.5801 44.2383 20.207 44.6602 19.9414C45.0859 19.6758 45.5879 19.543 46.166 19.543C46.877 19.543 47.4668 19.7559 47.9355 20.1816C48.4082 20.6074 48.6602 21.1602 48.6914 21.8398H47.666C47.6348 21.4297 47.4785 21.0938 47.1973 20.832C46.9199 20.5664 46.5762 20.4336 46.166 20.4336C45.6152 20.4336 45.1875 20.6328 44.8828 21.0312C44.582 21.4258 44.4316 21.998 44.4316 22.748V22.9531C44.4316 23.6836 44.582 24.2461 44.8828 24.6406C45.1836 25.0352 45.6133 25.2324 46.1719 25.2324ZM51.0879 26H50.0039V19.6602H51.0879V26ZM49.916 17.9785C49.916 17.8027 49.9688 17.6543 50.0742 17.5332C50.1836 17.4121 50.3438 17.3516 50.5547 17.3516C50.7656 17.3516 50.9258 17.4121 51.0352 17.5332C51.1445 17.6543 51.1992 17.8027 51.1992 17.9785C51.1992 18.1543 51.1445 18.3008 51.0352 18.418C50.9258 18.5352 50.7656 18.5938 50.5547 18.5938C50.3438 18.5938 50.1836 18.5352 50.0742 18.418C49.9688 18.3008 49.916 18.1543 49.916 17.9785ZM56.7422 26C56.6797 25.875 56.6289 25.6523 56.5898 25.332C56.0859 25.8555 55.4844 26.1172 54.7852 26.1172C54.1602 26.1172 53.6465 25.9414 53.2441 25.5898C52.8457 25.2344 52.6465 24.7852 52.6465 24.2422C52.6465 23.582 52.8965 23.0703 53.3965 22.707C53.9004 22.3398 54.6074 22.1562 55.5176 22.1562H56.5723V21.6582C56.5723 21.2793 56.459 20.9785 56.2324 20.7559C56.0059 20.5293 55.6719 20.416 55.2305 20.416C54.8438 20.416 54.5195 20.5137 54.2578 20.709C53.9961 20.9043 53.8652 21.1406 53.8652 21.418H52.7754C52.7754 21.1016 52.8867 20.7969 53.1094 20.5039C53.3359 20.207 53.6406 19.9727 54.0234 19.8008C54.4102 19.6289 54.834 19.543 55.2949 19.543C56.0254 19.543 56.5977 19.7266 57.0117 20.0938C57.4258 20.457 57.6406 20.959 57.6562 21.5996V24.5176C57.6562 25.0996 57.7305 25.5625 57.8789 25.9062V26H56.7422ZM54.9434 25.1738C55.2832 25.1738 55.6055 25.0859 55.9102 24.9102C56.2148 24.7344 56.4355 24.5059 56.5723 24.2246V22.9238H55.7227C54.3945 22.9238 53.7305 23.3125 53.7305 24.0898C53.7305 24.4297 53.8438 24.6953 54.0703 24.8867C54.2969 25.0781 54.5879 25.1738 54.9434 25.1738ZM62.4199 20.6328C62.2559 20.6055 62.0781 20.5918 61.8867 20.5918C61.1758 20.5918 60.6934 20.8945 60.4395 21.5V26H59.3555V19.6602H60.4102L60.4277 20.3926C60.7832 19.8262 61.2871 19.543 61.9395 19.543C62.1504 19.543 62.3105 19.5703 62.4199 19.625V20.6328ZM70.0898 24.3184C70.0898 24.0254 69.9785 23.7988 69.7559 23.6387C69.5371 23.4746 69.1523 23.334 68.6016 23.2168C68.0547 23.0996 67.6191 22.959 67.2949 22.7949C66.9746 22.6309 66.7363 22.4355 66.5801 22.209C66.4277 21.9824 66.3516 21.7129 66.3516 21.4004C66.3516 20.8809 66.5703 20.4414 67.0078 20.082C67.4492 19.7227 68.0117 19.543 68.6953 19.543C69.4141 19.543 69.9961 19.7285 70.4414 20.0996C70.8906 20.4707 71.1152 20.9453 71.1152 21.5234H70.0254C70.0254 21.2266 69.8984 20.9707 69.6445 20.7559C69.3945 20.541 69.0781 20.4336 68.6953 20.4336C68.3008 20.4336 67.9922 20.5195 67.7695 20.6914C67.5469 20.8633 67.4355 21.0879 67.4355 21.3652C67.4355 21.627 67.5391 21.8242 67.7461 21.957C67.9531 22.0898 68.3262 22.2168 68.8652 22.3379C69.4082 22.459 69.8477 22.6035 70.1836 22.7715C70.5195 22.9395 70.7676 23.1426 70.9277 23.3809C71.0918 23.6152 71.1738 23.9023 71.1738 24.2422C71.1738 24.8086 70.9473 25.2637 70.4941 25.6074C70.041 25.9473 69.4531 26.1172 68.7305 26.1172C68.2227 26.1172 67.7734 26.0273 67.3828 25.8477C66.9922 25.668 66.6855 25.418 66.4629 25.0977C66.2441 24.7734 66.1348 24.4238 66.1348 24.0488H67.2188C67.2383 24.4121 67.3828 24.7012 67.6523 24.916C67.9258 25.127 68.2852 25.2324 68.7305 25.2324C69.1406 25.2324 69.4688 25.1504 69.7148 24.9863C69.9648 24.8184 70.0898 24.5957 70.0898 24.3184ZM75.2168 26.1172C74.3574 26.1172 73.6582 25.8359 73.1191 25.2734C72.5801 24.707 72.3105 23.9512 72.3105 23.0059V22.8066C72.3105 22.1777 72.4297 21.6172 72.668 21.125C72.9102 20.6289 73.2461 20.2422 73.6758 19.9648C74.1094 19.6836 74.5781 19.543 75.082 19.543C75.9062 19.543 76.5469 19.8145 77.0039 20.3574C77.4609 20.9004 77.6895 21.6777 77.6895 22.6895V23.1406H73.3945C73.4102 23.7656 73.5918 24.2715 73.9395 24.6582C74.291 25.041 74.7363 25.2324 75.2754 25.2324C75.6582 25.2324 75.9824 25.1543 76.248 24.998C76.5137 24.8418 76.7461 24.6348 76.9453 24.377L77.6074 24.8926C77.0762 25.709 76.2793 26.1172 75.2168 26.1172ZM75.082 20.4336C74.6445 20.4336 74.2773 20.5938 73.9805 20.9141C73.6836 21.2305 73.5 21.6758 73.4297 22.25H76.6055V22.168C76.5742 21.6172 76.4258 21.1914 76.1602 20.8906C75.8945 20.5859 75.5352 20.4336 75.082 20.4336ZM82.6406 24.3184C82.6406 24.0254 82.5293 23.7988 82.3066 23.6387C82.0879 23.4746 81.7031 23.334 81.1523 23.2168C80.6055 23.0996 80.1699 22.959 79.8457 22.7949C79.5254 22.6309 79.2871 22.4355 79.1309 22.209C78.9785 21.9824 78.9023 21.7129 78.9023 21.4004C78.9023 20.8809 79.1211 20.4414 79.5586 20.082C80 19.7227 80.5625 19.543 81.2461 19.543C81.9648 19.543 82.5469 19.7285 82.9922 20.0996C83.4414 20.4707 83.666 20.9453 83.666 21.5234H82.5762C82.5762 21.2266 82.4492 20.9707 82.1953 20.7559C81.9453 20.541 81.6289 20.4336 81.2461 20.4336C80.8516 20.4336 80.543 20.5195 80.3203 20.6914C80.0977 20.8633 79.9863 21.0879 79.9863 21.3652C79.9863 21.627 80.0898 21.8242 80.2969 21.957C80.5039 22.0898 80.877 22.2168 81.416 22.3379C81.959 22.459 82.3984 22.6035 82.7344 22.7715C83.0703 22.9395 83.3184 23.1426 83.4785 23.3809C83.6426 23.6152 83.7246 23.9023 83.7246 24.2422C83.7246 24.8086 83.498 25.2637 83.0449 25.6074C82.5918 25.9473 82.0039 26.1172 81.2812 26.1172C80.7734 26.1172 80.3242 26.0273 79.9336 25.8477C79.543 25.668 79.2363 25.418 79.0137 25.0977C78.7949 24.7734 78.6855 24.4238 78.6855 24.0488H79.7695C79.7891 24.4121 79.9336 24.7012 80.2031 24.916C80.4766 25.127 80.8359 25.2324 81.2812 25.2324C81.6914 25.2324 82.0195 25.1504 82.2656 24.9863C82.5156 24.8184 82.6406 24.5957 82.6406 24.3184ZM86.3145 26H85.2305V19.6602H86.3145V26ZM85.1426 17.9785C85.1426 17.8027 85.1953 17.6543 85.3008 17.5332C85.4102 17.4121 85.5703 17.3516 85.7812 17.3516C85.9922 17.3516 86.1523 17.4121 86.2617 17.5332C86.3711 17.6543 86.4258 17.8027 86.4258 17.9785C86.4258 18.1543 86.3711 18.3008 86.2617 18.418C86.1523 18.5352 85.9922 18.5938 85.7812 18.5938C85.5703 18.5938 85.4102 18.5352 85.3008 18.418C85.1953 18.3008 85.1426 18.1543 85.1426 17.9785ZM87.7676 22.7715C87.7676 22.1504 87.8887 21.5918 88.1309 21.0957C88.377 20.5996 88.7168 20.2168 89.1504 19.9473C89.5879 19.6777 90.0859 19.543 90.6445 19.543C91.5078 19.543 92.2051 19.8418 92.7363 20.4395C93.2715 21.0371 93.5391 21.832 93.5391 22.8242V22.9004C93.5391 23.5176 93.4199 24.0723 93.1816 24.5645C92.9473 25.0527 92.6094 25.4336 92.168 25.707C91.7305 25.9805 91.2266 26.1172 90.6562 26.1172C89.7969 26.1172 89.0996 25.8184 88.5645 25.2207C88.0332 24.623 87.7676 23.832 87.7676 22.8477V22.7715ZM88.8574 22.9004C88.8574 23.6035 89.0195 24.168 89.3438 24.5938C89.6719 25.0195 90.1094 25.2324 90.6562 25.2324C91.207 25.2324 91.6445 25.0176 91.9688 24.5879C92.293 24.1543 92.4551 23.5488 92.4551 22.7715C92.4551 22.0762 92.2891 21.5137 91.957 21.084C91.6289 20.6504 91.1914 20.4336 90.6445 20.4336C90.1094 20.4336 89.6777 20.6465 89.3496 21.0723C89.0215 21.498 88.8574 22.1074 88.8574 22.9004ZM91.1367 17H92.4492L90.8789 18.7227H90.0059L91.1367 17ZM95.9238 19.6602L95.959 20.457C96.4434 19.8477 97.0762 19.543 97.8574 19.543C99.1973 19.543 99.873 20.2988 99.8848 21.8105V26H98.8008V21.8047C98.7969 21.3477 98.6914 21.0098 98.4844 20.791C98.2812 20.5723 97.9629 20.4629 97.5293 20.4629C97.1777 20.4629 96.8691 20.5566 96.6035 20.7441C96.3379 20.9316 96.1309 21.1777 95.9824 21.4824V26H94.8984V19.6602H95.9238Z" fill="black"/>
</svg>
